<svg xmlns="http://www.w3.org/2000/svg" width="820" height="190"><style >
.notebig {font: bold 14px sans-serif; fill: white }
.notemedium{font: bold 12px sans-serif; fill: white }
.notesmall{font: 8px sans-serif; fill: white }
.watermark{font: 8px sans-serif; fill: black }
</style><rect stroke="black" x="15" y="20" width="10" height="150" fill="black"/><line stroke="black" stroke-width="4" x1="15" y1="20.0" x2="803" y2="20.0"/><line stroke="black" stroke-width="4" x1="15" y1="50.0" x2="803" y2="50.0"/><line stroke="black" stroke-width="4" x1="15" y1="80.0" x2="803" y2="80.0"/><line stroke="black" stroke-width="4" x1="15" y1="110.0" x2="803" y2="110.0"/><line stroke="black" stroke-width="4" x1="15" y1="140.0" x2="803" y2="140.0"/><line stroke="black" stroke-width="4" x1="15" y1="170.0" x2="803" y2="170.0"/><line stroke="black" stroke-width="6" x1="20.0" y1="20" x2="20.0" y2="170"/><line stroke="black" stroke-width="6" x1="85.0" y1="20" x2="85.0" y2="170"/><line stroke="black" stroke-width="6" x1="150.0" y1="20" x2="150.0" y2="170"/><line stroke="black" stroke-width="6" x1="215.0" y1="20" x2="215.0" y2="170"/><line stroke="black" stroke-width="6" x1="280.0" y1="20" x2="280.0" y2="170"/><line stroke="black" stroke-width="6" x1="345.0" y1="20" x2="345.0" y2="170"/><line stroke="black" stroke-width="6" x1="410.0" y1="20" x2="410.0" y2="170"/><line stroke="black" stroke-width="6" x1="475.0" y1="20" x2="475.0" y2="170"/><line stroke="black" stroke-width="6" x1="540.0" y1="20" x2="540.0" y2="170"/><line stroke="black" stroke-width="6" x1="605.0" y1="20" x2="605.0" y2="170"/><line stroke="black" stroke-width="6" x1="670.0" y1="20" x2="670.0" y2="170"/><line stroke="black" stroke-width="6" x1="735.0" y1="20" x2="735.0" y2="170"/><line stroke="black" stroke-width="6" x1="800.0" y1="20" x2="800.0" y2="170"/><text class="watermark" x="695" y="190">Generated with Trallala</text><circle stroke="red" stroke-width="1" cx="540.0" cy="170.0" r="13.5" fill="red"/><text class="notebig" fill="white" x="535.0" y="174.0">C</text><circle stroke="red" stroke-width="1" cx="215.0" cy="140.0" r="13.5" fill="red"/><text class="notebig" fill="white" x="210.0" y="144.0">C</text><circle stroke="red" stroke-width="1" cx="670.0" cy="110.0" r="13.5" fill="red"/><text class="notebig" fill="white" x="665.0" y="114.0">C</text><circle stroke="red" stroke-width="1" cx="345.0" cy="80.0" r="13.5" fill="red"/><text class="notebig" fill="white" x="340.0" y="84.0">C</text><circle stroke="red" stroke-width="1" cx="85.0" cy="50.0" r="13.5" fill="red"/><text class="notebig" fill="white" x="80.0" y="54.0">C</text><circle stroke="red" stroke-width="1" cx="540.0" cy="20.0" r="13.5" fill="red"/><text class="notebig" fill="white" x="535.0" y="24.0">C</text><circle stroke="green" stroke-width="1" cx="20.0" cy="170.0" r="13.5" fill="green"/><text class="notesmall" fill="white" x="9.0" y="173.0">M3  D4</text><circle stroke="green" stroke-width="1" cx="800.0" cy="170.0" r="13.5" fill="green"/><text class="notesmall" fill="white" x="789.0" y="173.0">M3  D4</text><circle stroke="green" stroke-width="1" cx="475.0" cy="140.0" r="13.5" fill="green"/><text class="notesmall" fill="white" x="464.0" y="143.0">M3  D4</text><circle stroke="green" stroke-width="1" cx="150.0" cy="110.0" r="13.5" fill="green"/><text class="notesmall" fill="white" x="139.0" y="113.0">M3  D4</text><circle stroke="green" stroke-width="1" cx="605.0" cy="80.0" r="13.5" fill="green"/><text class="notesmall" fill="white" x="594.0" y="83.0">M3  D4</text><circle stroke="green" stroke-width="1" cx="345.0" cy="50.0" r="13.5" fill="green"/><text class="notesmall" fill="white" x="334.0" y="53.0">M3  D4</text><circle stroke="green" stroke-width="1" cx="20.0" cy="20.0" r="13.5" fill="green"/><text class="notesmall" fill="white" x="9.0" y="23.0">M3  D4</text><circle stroke="green" stroke-width="1" cx="800.0" cy="20.0" r="13.5" fill="green"/><text class="notesmall" fill="white" x="789.0" y="23.0">M3  D4</text><circle stroke="green" stroke-width="1" cx="215.0" cy="170.0" r="13.5" fill="green"/><text class="notesmall" fill="white" x="204.0" y="173.0">P5  D6</text><circle stroke="green" stroke-width="1" cx="670.0" cy="140.0" r="13.5" fill="green"/><text class="notesmall" fill="white" x="659.0" y="143.0">P5  D6</text><circle stroke="green" stroke-width="1" cx="345.0" cy="110.0" r="13.5" fill="green"/><text class="notesmall" fill="white" x="334.0" y="113.0">P5  D6</text><circle stroke="green" stroke-width="1" cx="20.0" cy="80.0" r="13.5" fill="green"/><text class="notesmall" fill="white" x="9.0" y="83.0">P5  D6</text><circle stroke="green" stroke-width="1" cx="800.0" cy="80.0" r="13.5" fill="green"/><text class="notesmall" fill="white" x="789.0" y="83.0">P5  D6</text><circle stroke="green" stroke-width="1" cx="540.0" cy="50.0" r="13.5" fill="green"/><text class="notesmall" fill="white" x="529.0" y="53.0">P5  D6</text><circle stroke="green" stroke-width="1" cx="215.0" cy="20.0" r="13.5" fill="green"/><text class="notesmall" fill="white" x="204.0" y="23.0">P5  D6</text></svg>
