<svg xmlns="http://www.w3.org/2000/svg" width="1540" height="190"><style >
.notebig {font: bold 14px sans-serif; fill: white }
.notemedium{font: bold 12px sans-serif; fill: white }
.notesmall{font: 8px sans-serif; fill: white }
.watermark{font: 8px sans-serif; fill: black }
</style><rect stroke="black" x="15" y="20" width="10" height="150" fill="black"/><line stroke="black" stroke-width="4" x1="15" y1="20.0" x2="1523" y2="20.0"/><line stroke="black" stroke-width="4" x1="15" y1="50.0" x2="1523" y2="50.0"/><line stroke="black" stroke-width="4" x1="15" y1="80.0" x2="1523" y2="80.0"/><line stroke="black" stroke-width="4" x1="15" y1="110.0" x2="1523" y2="110.0"/><line stroke="black" stroke-width="4" x1="15" y1="140.0" x2="1523" y2="140.0"/><line stroke="black" stroke-width="4" x1="15" y1="170.0" x2="1523" y2="170.0"/><line stroke="black" stroke-width="6" x1="20.0" y1="20" x2="20.0" y2="170"/><line stroke="black" stroke-width="6" x1="82.5" y1="20" x2="82.5" y2="170"/><line stroke="black" stroke-width="6" x1="145.0" y1="20" x2="145.0" y2="170"/><line stroke="black" stroke-width="6" x1="207.5" y1="20" x2="207.5" y2="170"/><line stroke="black" stroke-width="6" x1="270.0" y1="20" x2="270.0" y2="170"/><line stroke="black" stroke-width="6" x1="332.5" y1="20" x2="332.5" y2="170"/><line stroke="black" stroke-width="6" x1="395.0" y1="20" x2="395.0" y2="170"/><line stroke="black" stroke-width="6" x1="457.5" y1="20" x2="457.5" y2="170"/><line stroke="black" stroke-width="6" x1="520.0" y1="20" x2="520.0" y2="170"/><line stroke="black" stroke-width="6" x1="582.5" y1="20" x2="582.5" y2="170"/><line stroke="black" stroke-width="6" x1="645.0" y1="20" x2="645.0" y2="170"/><line stroke="black" stroke-width="6" x1="707.5" y1="20" x2="707.5" y2="170"/><line stroke="black" stroke-width="6" x1="770.0" y1="20" x2="770.0" y2="170"/><line stroke="black" stroke-width="6" x1="832.5" y1="20" x2="832.5" y2="170"/><line stroke="black" stroke-width="6" x1="895.0" y1="20" x2="895.0" y2="170"/><line stroke="black" stroke-width="6" x1="957.5" y1="20" x2="957.5" y2="170"/><line stroke="black" stroke-width="6" x1="1020.0" y1="20" x2="1020.0" y2="170"/><line stroke="black" stroke-width="6" x1="1082.5" y1="20" x2="1082.5" y2="170"/><line stroke="black" stroke-width="6" x1="1145.0" y1="20" x2="1145.0" y2="170"/><line stroke="black" stroke-width="6" x1="1207.5" y1="20" x2="1207.5" y2="170"/><line stroke="black" stroke-width="6" x1="1270.0" y1="20" x2="1270.0" y2="170"/><line stroke="black" stroke-width="6" x1="1332.5" y1="20" x2="1332.5" y2="170"/><line stroke="black" stroke-width="6" x1="1395.0" y1="20" x2="1395.0" y2="170"/><line stroke="black" stroke-width="6" x1="1457.5" y1="20" x2="1457.5" y2="170"/><line stroke="black" stroke-width="6" x1="1520.0" y1="20" x2="1520.0" y2="170"/><text class="watermark" x="1415" y="190">Generated with Trallala</text><circle stroke="red" stroke-width="1" cx="1395.0" cy="110.0" r="13.5" fill="red"/><text class="notebig" fill="white" x="1387.0" y="114.0">C5</text><circle stroke="red" stroke-width="1" cx="1082.5" cy="80.0" r="13.5" fill="red"/><text class="notebig" fill="white" x="1074.5" y="84.0">C5</text><circle stroke="red" stroke-width="1" cx="832.5" cy="50.0" r="13.5" fill="red"/><text class="notebig" fill="white" x="824.5" y="54.0">C5</text><circle stroke="red" stroke-width="1" cx="520.0" cy="20.0" r="13.5" fill="red"/><text class="notebig" fill="white" x="512.0" y="24.0">C5</text><circle stroke="green" stroke-width="1" cx="1520.0" cy="170.0" r="13.5" fill="green"/><text class="notebig" fill="white" x="1512.0" y="174.0">E4</text><circle stroke="green" stroke-width="1" cx="1207.5" cy="140.0" r="13.5" fill="green"/><text class="notebig" fill="white" x="1199.5" y="144.0">E4</text><circle stroke="green" stroke-width="1" cx="895.0" cy="110.0" r="13.5" fill="green"/><text class="notebig" fill="white" x="887.0" y="114.0">E4</text><circle stroke="green" stroke-width="1" cx="582.5" cy="80.0" r="13.5" fill="green"/><text class="notebig" fill="white" x="574.5" y="84.0">E4</text><circle stroke="green" stroke-width="1" cx="332.5" cy="50.0" r="13.5" fill="green"/><text class="notebig" fill="white" x="324.5" y="54.0">E4</text><circle stroke="green" stroke-width="1" cx="20.0" cy="20.0" r="13.5" fill="green"/><text class="notebig" fill="white" x="12.0" y="24.0">E4</text><circle stroke="green" stroke-width="1" cx="1395.0" cy="140.0" r="13.5" fill="green"/><text class="notebig" fill="white" x="1387.0" y="144.0">G4</text><circle stroke="green" stroke-width="1" cx="1082.5" cy="110.0" r="13.5" fill="green"/><text class="notebig" fill="white" x="1074.5" y="114.0">G4</text><circle stroke="green" stroke-width="1" cx="770.0" cy="80.0" r="13.5" fill="green"/><text class="notebig" fill="white" x="762.0" y="84.0">G4</text><circle stroke="green" stroke-width="1" cx="520.0" cy="50.0" r="13.5" fill="green"/><text class="notebig" fill="white" x="512.0" y="54.0">G4</text><circle stroke="green" stroke-width="1" cx="207.5" cy="20.0" r="13.5" fill="green"/><text class="notebig" fill="white" x="199.5" y="24.0">G4</text></svg>
